<svg width="512" height="512" viewBox="0 0 16 16" fill="none" xmlns="http://www.w3.org/2000/svg">
<path d="M6.41423 3.2015C6.41423 1.70975 7.60513 0.5 9.07528 0.5C9.35749 0.5 9.58577 0.7325 9.58577 1.019V12.7985C9.58577 14.2903 8.39487 15.5 6.92472 15.5C6.64251 15.5 6.41423 15.2675 6.41423 14.981V3.2015ZM10.9215 5.82875C10.9215 4.33625 12.1131 3.12725 13.5833 3.12725C13.8655 3.12725 14.0938 3.359 14.0938 3.6455V10.1713C14.0938 11.6638 12.9029 12.8727 11.4327 12.8727C11.1505 12.8727 10.9215 12.641 10.9215 12.3545V5.82875ZM1.90625 5.82875C1.90625 4.33625 3.09789 3.12725 4.5673 3.12725C4.84951 3.12725 5.07853 3.359 5.07853 3.6455V10.1713C5.07853 11.6638 3.88689 12.8727 2.41748 12.8727C2.13527 12.8727 1.90625 12.641 1.90625 12.3545V5.82875Z" fill="white"/>
</svg>